<svg id="icons" xmlns="http://www.w3.org/2000/svg" viewBox="0 0 48 48"><title>emoticon-chat</title><g id="emoticon-chat"><path d="M24.4,43.2a14,14,0,1,1,2.8-2.8" fill="#ffd259"/><polyline points="40 15 35 15 30 20 30 15 26 15 26 2 46 2 46 15 44 15" fill="#60deae"/><path d="M24.4,43.2a14,14,0,1,1,2.8-2.8" fill="none" stroke="#423e5e" stroke-linecap="round" stroke-linejoin="round" stroke-width="2"/><path d="M19,30a3,3,0,0,1,6,0" fill="none" stroke="#423e5e" stroke-linecap="round" stroke-linejoin="round" stroke-width="2"/><path d="M7,30a3,3,0,0,1,6,0" fill="none" stroke="#423e5e" stroke-linecap="round" stroke-linejoin="round" stroke-width="2"/><path d="M22,34a6,6,0,0,1-12,0Z" fill="#423e5e"/><path d="M40,15H35l-5,5V15H27a1,1,0,0,1-1-1V3a1,1,0,0,1,1-1H45a1,1,0,0,1,1,1V14a1,1,0,0,1-1,1H44" fill="none" stroke="#423e5e" stroke-linecap="round" stroke-linejoin="round" stroke-width="2"/><line x1="31" y1="8" x2="31" y2="8" fill="none" stroke="#423e5e" stroke-linecap="round" stroke-linejoin="round" stroke-width="3"/><line x1="36" y1="8" x2="36" y2="8" fill="none" stroke="#423e5e" stroke-linecap="round" stroke-linejoin="round" stroke-width="3"/><line x1="41" y1="8" x2="41" y2="8" fill="none" stroke="#423e5e" stroke-linecap="round" stroke-linejoin="round" stroke-width="3"/></g></svg>